<svg width="1024" height="1024" viewBox="0 0 1024 1024" fill="none" xmlns="http://www.w3.org/2000/svg">
<path d="M334.564 226.483L188.314 112C152.906 147.862 148.288 204.414 188.314 236.138C228.341 267.862 299.156 262.345 334.564 226.483ZM834.893 112L697.88 226.483C733.288 262.345 794.867 267.862 834.893 236.138C874.92 204.414 870.301 147.862 834.893 112ZM790.249 498.207L713.275 263.724C697.88 222.345 648.617 194.759 605.512 194.759H436.17C393.064 194.759 343.801 222.345 328.406 263.724L251.433 498.207C251.433 527.172 271.446 552 300.696 561.655L220.643 732.69C220.643 771.31 254.512 856.828 297.617 856.828H744.064C787.17 856.828 821.038 771.31 821.038 732.69L737.906 563.034C768.696 553.379 790.249 528.552 790.249 498.207ZM446.946 425.103C463.88 372.69 486.972 346.483 514.683 346.483C542.393 346.483 565.485 372.69 582.42 425.103C585.499 432 580.88 440.276 571.643 441.655H567.025C560.867 441.655 554.709 437.517 551.63 432C536.235 385.103 520.841 372.69 513.143 372.69C505.446 372.69 490.051 385.103 474.656 432C471.577 438.897 463.88 443.034 456.183 441.655C448.485 440.276 443.867 433.379 446.946 425.103ZM374.591 512C357.656 512 343.801 499.586 343.801 484.414C343.801 469.241 357.656 456.828 374.591 456.828C391.525 456.828 405.38 469.241 405.38 484.414C405.38 499.586 393.064 512 374.591 512ZM513.143 787.862C470.038 787.862 436.17 757.517 436.17 718.897C436.17 680.276 470.038 470.621 513.143 470.621C556.248 470.621 590.117 680.276 590.117 718.897C590.117 757.517 556.248 787.862 513.143 787.862ZM651.696 512C634.762 512 620.906 499.586 620.906 484.414C620.906 469.241 634.762 456.828 651.696 456.828C668.63 456.828 682.485 469.241 682.485 484.414C682.485 499.586 670.17 512 651.696 512ZM434.63 912H588.577C610.13 912 623.985 900.966 630.143 884.414H393.064C399.222 900.966 413.077 912 434.63 912Z" fill="#8CC63E"/>
</svg>
